<svg xmlns="http://www.w3.org/2000/svg" viewBox="0 0 32 32">
  <defs>
    <linearGradient id="ezri-gradient" x1="0" y1="0" x2="1" y2="1">
      <stop offset="0%" stop-color="#6366f1" />
      <stop offset="100%" stop-color="#ec4899" />
    </linearGradient>
  </defs>
  <rect width="32" height="32" rx="8" fill="url(#ezri-gradient)" />
  <path
    fill="#ffffff"
    d="M16 23c-.4 0-.8-.1-1.1-.4l-6.4-5.6C6.3 15.1 5.5 13.6 5.5 12c0-2.1 1.6-3.9 3.8-3.9 1.3 0 2.6.7 3.4 1.8.8-1.1 2.1-1.8 3.4-1.8 2.2 0 3.8 1.8 3.8 3.9 0 1.6-.8 3.1-3 5l-6.4 5.6c-.3.3-.7.4-1.1.4z"
  />
</svg>
